<svg width="119" height="60" viewBox="0 0 119 60" fill="none" xmlns="http://www.w3.org/2000/svg">
<path d="M12.2293 21.0814L17.9834 55.9998C11.59 48.4684 -0.717415 30.9407 1.20062 21.0814C3.59816 8.75719 20.8605 10.8112 34.2867 18.2057C56.6637 30.5299 34.2867 55.9998 12.2293 55.9998C-9.82807 55.9998 49.631 30.5299 49.631 30.5299" stroke="#FFEBEB" stroke-width="2"/>
<path d="M71.9673 4.02972C71.9673 -7.06203 48.9509 15.5323 56.1435 20.0511C63.3361 24.57 86.832 25.8024 83.4755 29.9104C80.1189 34.0185 67.1722 40.1806 56.1435 40.1806C45.1148 40.1806 92.2664 19.7772 91.1476 23.3376C88.9099 24.2961 85.1058 26.9527 87.791 29.9104C93.5451 34.4293 94.9836 23.3376 94.9836 23.3376L99.2992 27.0348L102.176 14.2998C102.176 14.2998 105.053 27.0348 105.053 33.1969C105.053 40.1806 94.9836 40.1806 79.6394 44.6994C66.3396 48.6162 100.977 26.2132 118 29.9104" stroke="#FFEBEB" stroke-width="2"/>
<path d="M103.135 7.00517C103.135 7.00517 100.738 3.08329 100.738 7.00517C100.738 10.9271 103.135 8.78786 103.135 8.78786V7.00517Z" stroke="white" stroke-width="2"/>
<path d="M50.8688 31.6535C50.8688 31.6535 49.4303 27.7316 49.4303 31.6535C49.4303 35.5754 50.8688 33.4362 50.8688 33.4362V31.6535Z" stroke="white" stroke-width="2"/>
</svg>
